<svg width="58" height="64" viewBox="0 0 58 64" fill="none" xmlns="http://www.w3.org/2000/svg">
<path d="M53.7921 50.2937C55.9579 49.0433 57.2921 46.7324 57.2921 44.2315L57.2921 19.4782C57.2921 16.9773 55.9579 14.6664 53.7921 13.416L32.3551 1.03935C30.1893 -0.211081 27.5209 -0.21108 25.3551 1.03935L3.91813 13.416C1.75232 14.6664 0.418127 16.9773 0.418128 19.4782L0.41813 44.2315C0.418131 46.7324 1.75232 49.0433 3.91813 50.2937L25.3551 62.6703C27.5209 63.9208 30.1893 63.9208 32.3551 62.6703L53.7921 50.2937Z" fill="#F5C43D"/>
<g clip-path="url(#clip0_0_1)">
<path d="M32.3335 23L44.0002 34.6667L37.3335 41.3333" stroke="#203955" stroke-width="2" stroke-linecap="round" stroke-linejoin="round"/>
<path d="M18.7135 43.2868C19.1512 43.7246 19.6709 44.0719 20.2428 44.3089C20.8148 44.5458 21.4278 44.6678 22.0469 44.6678C22.6659 44.6678 23.279 44.5458 23.8509 44.3089C24.4228 44.0719 24.9425 43.7246 25.3802 43.2868L43.0235 25.6435C43.3332 25.3339 43.5788 24.9664 43.7464 24.5619C43.914 24.1574 44.0003 23.7238 44.0003 23.286C44.0003 22.8481 43.914 22.4145 43.7464 22.01C43.5788 21.6055 43.3332 21.238 43.0235 20.9285L41.0719 18.9768C40.7623 18.6671 40.3948 18.4215 39.9903 18.2539C39.5858 18.0863 39.1522 18 38.7144 18C38.2765 18 37.8429 18.0863 37.4384 18.2539C37.0339 18.4215 36.6664 18.6671 36.3569 18.9768L18.7135 36.6201C18.2757 37.0578 17.9284 37.5775 17.6914 38.1494C17.4545 38.7214 17.3325 39.3344 17.3325 39.9535C17.3325 40.5725 17.4545 41.1856 17.6914 41.7575C17.9284 42.3294 18.2757 42.8491 18.7135 43.2868Z" stroke="#203955" stroke-width="2" stroke-linecap="round" stroke-linejoin="round"/>
<path d="M15.6665 46.3334L18.6132 43.3867" stroke="#203955" stroke-width="2" stroke-linecap="round" stroke-linejoin="round"/>
</g>
<defs>
<clipPath id="clip0_0_1">
<rect width="40" height="40" fill="white" transform="translate(9 13)"/>
</clipPath>
</defs>
</svg>
