<svg width="58" height="64" viewBox="0 0 58 64" fill="none" xmlns="http://www.w3.org/2000/svg">
<path d="M53.7921 50.2937C55.9579 49.0433 57.2921 46.7324 57.2921 44.2315L57.2921 19.4782C57.2921 16.9773 55.9579 14.6664 53.7921 13.416L32.3551 1.03935C30.1893 -0.211081 27.5209 -0.21108 25.3551 1.03935L3.91813 13.416C1.75232 14.6664 0.418127 16.9773 0.418128 19.4782L0.41813 44.2315C0.418131 46.7324 1.75232 49.0433 3.91813 50.2937L25.3551 62.6703C27.5209 63.9208 30.1893 63.9208 32.3551 62.6703L53.7921 50.2937Z" fill="#F5C43D"/>
<g clip-path="url(#clip0_0_1)">
<path d="M13 41.3335C13 42.6596 13.5268 43.9313 14.4645 44.869C15.4021 45.8067 16.6739 46.3335 18 46.3335C19.3261 46.3335 20.5979 45.8067 21.5355 44.869C22.4732 43.9313 23 42.6596 23 41.3335C23 40.0074 22.4732 38.7356 21.5355 37.798C20.5979 36.8603 19.3261 36.3335 18 36.3335C16.6739 36.3335 15.4021 36.8603 14.4645 37.798C13.5268 38.7356 13 40.0074 13 41.3335Z" stroke="#203955" stroke-width="2" stroke-linecap="round" stroke-linejoin="round"/>
<path d="M29.6665 41.3335C29.6665 42.6596 30.1933 43.9313 31.131 44.869C32.0687 45.8067 33.3404 46.3335 34.6665 46.3335C35.9926 46.3335 37.2644 45.8067 38.202 44.869C39.1397 43.9313 39.6665 42.6596 39.6665 41.3335C39.6665 40.0074 39.1397 38.7356 38.202 37.798C37.2644 36.8603 35.9926 36.3335 34.6665 36.3335C33.3404 36.3335 32.0687 36.8603 31.131 37.798C30.1933 38.7356 29.6665 40.0074 29.6665 41.3335Z" stroke="#203955" stroke-width="2" stroke-linecap="round" stroke-linejoin="round"/>
<path d="M23 41.3332V19.6665H39.6667V41.3332" stroke="#203955" stroke-width="2" stroke-linecap="round" stroke-linejoin="round"/>
<path d="M23 26.3335H39.6667" stroke="#203955" stroke-width="2" stroke-linecap="round" stroke-linejoin="round"/>
</g>
<defs>
<clipPath id="clip0_0_1">
<rect width="40" height="40" fill="white" transform="translate(8 13)"/>
</clipPath>
</defs>
</svg>
