<svg width="58" height="64" viewBox="0 0 58 64" fill="none" xmlns="http://www.w3.org/2000/svg">
<path d="M53.7921 50.2942C55.9579 49.0437 57.2921 46.7329 57.2921 44.232L57.2921 19.4787C57.2921 16.9778 55.9579 14.6669 53.7921 13.4165L32.3551 1.03984C30.1893 -0.210592 27.5209 -0.210591 25.3551 1.03984L3.91813 13.4165C1.75232 14.6669 0.418127 16.9778 0.418128 19.4787L0.41813 44.232C0.418131 46.7329 1.75232 49.0437 3.91813 50.2942L25.3551 62.6708C27.5209 63.9213 30.1893 63.9213 32.3551 62.6708L53.7921 50.2942Z" fill="#F5C43D"/>
<g clip-path="url(#clip0_0_1)">
<path d="M17.3333 24.6665H19C19.8841 24.6665 20.7319 24.3153 21.357 23.6902C21.9821 23.0651 22.3333 22.2172 22.3333 21.3332C22.3333 20.8911 22.5089 20.4672 22.8215 20.1547C23.134 19.8421 23.558 19.6665 24 19.6665H34C34.442 19.6665 34.8659 19.8421 35.1785 20.1547C35.4911 20.4672 35.6667 20.8911 35.6667 21.3332C35.6667 22.2172 36.0179 23.0651 36.643 23.6902C37.2681 24.3153 38.1159 24.6665 39 24.6665H40.6667C41.5507 24.6665 42.3986 25.0177 43.0237 25.6428C43.6488 26.2679 44 27.1158 44 27.9998V42.9998C44 43.8839 43.6488 44.7317 43.0237 45.3569C42.3986 45.982 41.5507 46.3332 40.6667 46.3332H17.3333C16.4493 46.3332 15.6014 45.982 14.9763 45.3569C14.3512 44.7317 14 43.8839 14 42.9998V27.9998C14 27.1158 14.3512 26.2679 14.9763 25.6428C15.6014 25.0177 16.4493 24.6665 17.3333 24.6665Z" stroke="#203955" stroke-width="2" stroke-linecap="round" stroke-linejoin="round"/>
<path d="M24 34.6665C24 35.9926 24.5268 37.2644 25.4645 38.202C26.4021 39.1397 27.6739 39.6665 29 39.6665C30.3261 39.6665 31.5979 39.1397 32.5355 38.202C33.4732 37.2644 34 35.9926 34 34.6665C34 33.3404 33.4732 32.0687 32.5355 31.131C31.5979 30.1933 30.3261 29.6665 29 29.6665C27.6739 29.6665 26.4021 30.1933 25.4645 31.131C24.5268 32.0687 24 33.3404 24 34.6665Z" stroke="#203955" stroke-width="2" stroke-linecap="round" stroke-linejoin="round"/>
</g>
<defs>
<clipPath id="clip0_0_1">
<rect width="40" height="40" fill="white" transform="translate(9 13)"/>
</clipPath>
</defs>
</svg>
