<svg width="58" height="64" viewBox="0 0 58 64" fill="none" xmlns="http://www.w3.org/2000/svg">
<path d="M53.7921 50.2942C55.9579 49.0437 57.2921 46.7329 57.2921 44.232L57.2921 19.4787C57.2921 16.9778 55.9579 14.6669 53.7921 13.4165L32.3551 1.03984C30.1893 -0.210592 27.5209 -0.210591 25.3551 1.03984L3.91813 13.4165C1.75232 14.6669 0.418127 16.9778 0.418128 19.4787L0.41813 44.232C0.418131 46.7329 1.75232 49.0437 3.91813 50.2942L25.3551 62.6708C27.5209 63.9213 30.1893 63.9213 32.3551 62.6708L53.7921 50.2942Z" fill="#F5C43D"/>
<g clip-path="url(#clip0_0_1)">
<path d="M44 43.9375C38.445 40.6042 35.6667 37.2708 35.6667 33.9375C35.6667 28.9375 37.3333 28.9375 39 28.9375C40.6667 28.9375 42.3867 30.7458 42.3333 33.9375C42.2767 37.3508 39.57 38.7325 38.1667 40.6042C35.6667 43.9375 34 44.7708 32.3333 42.2708C31.2217 40.6042 30.3883 39.2158 29.8333 38.1042C28.1667 41.9925 25.945 43.9375 23.1667 43.9375H19" stroke="#203955" stroke-width="2" stroke-linecap="round" stroke-linejoin="round"/>
<path d="M15.6668 40.6041V20.6041C15.6668 18.7358 17.1318 17.2708 19.0002 17.2708C20.8685 17.2708 22.3335 18.7358 22.3335 20.6041V40.6041L19.0002 43.9374L15.6668 40.6041Z" stroke="#203955" stroke-width="2" stroke-linecap="round" stroke-linejoin="round"/>
<path d="M22.3335 23.9375H15.6668" stroke="#203955" stroke-width="2" stroke-linecap="round" stroke-linejoin="round"/>
</g>
<defs>
<clipPath id="clip0_0_1">
<rect width="40" height="40" fill="white" transform="matrix(-1 0 0 1 49 12.2708)"/>
</clipPath>
</defs>
</svg>
